<?xml version="1.0" standalone="no"?>
<!DOCTYPE svg PUBLIC "-//W3C//DTD SVG 20010904//EN"
 "http://www.w3.org/TR/2001/REC-SVG-20010904/DTD/svg10.dtd">
<svg version="1.0" xmlns="http://www.w3.org/2000/svg"
 width="51.000000pt" height="51.000000pt" viewBox="0 0 51.000000 51.000000"
 preserveAspectRatio="xMidYMid meet">

<g transform="translate(0.000000,51.000000) scale(0.100000,-0.100000)"
fill="#000000" stroke="none">
<path d="M0 335 l0 -175 50 0 c38 0 50 -4 50 -15 0 -11 -12 -15 -50 -15 l-50
0 0 -60 0 -60 60 0 60 0 0 50 c0 38 4 50 15 50 11 0 15 -12 15 -50 l0 -50 175
0 175 0 0 175 0 175 -50 0 c-38 0 -50 4 -50 15 0 11 12 15 50 15 l50 0 0 60 0
60 -60 0 -60 0 0 -50 c0 -38 -4 -50 -15 -50 -11 0 -15 12 -15 50 l0 50 -175 0
-175 0 0 -175z m330 115 l0 -40 -115 0 -115 0 0 -115 0 -115 -40 0 -40 0 0
155 0 155 155 0 155 0 0 -40z m160 0 l0 -40 -45 0 -45 0 0 40 0 40 45 0 45 0
0 -40z m-160 -75 c0 -12 -17 -15 -90 -15 l-90 0 0 -90 c0 -73 -3 -90 -15 -90
-12 0 -15 18 -15 105 l0 105 105 0 c87 0 105 -3 105 -15z m50 0 c0 -8 -7 -15
-15 -15 -8 0 -15 7 -15 15 0 8 7 15 15 15 8 0 15 -7 15 -15z m-50 -115 l0 -80
-80 0 -80 0 0 80 0 80 80 0 80 0 0 -80z m50 -25 l0 -105 -105 0 c-87 0 -105 3
-105 15 0 12 17 15 90 15 l90 0 0 90 c0 73 3 90 15 90 12 0 15 -18 15 -105z
m110 -55 l0 -160 -160 0 -160 0 0 45 0 45 115 0 115 0 0 115 0 115 45 0 45 0
0 -160z m-340 -35 c0 -8 -7 -15 -15 -15 -8 0 -15 7 -15 15 0 8 7 15 15 15 8 0
15 -7 15 -15z m-50 -80 l0 -45 -40 0 -40 0 0 45 0 45 40 0 40 0 0 -45z"/>
</g>
</svg>
